<svg width="638" height="758" viewBox="0 0 638 758" version="1.1" xmlns="http://www.w3.org/2000/svg" xmlns:xlink="http://www.w3.org/1999/xlink">
<title>Group</title>
<desc>Created using Figma</desc>
<g id="Canvas" transform="matrix(2 0 0 2 -35922 -6034)">
<g id="Group">
<clipPath id="clip-0" clip-rule="evenodd">
<path d="M 18042.8 3059.54L 18278.3 3059.54L 18278.3 3270.03L 18042.8 3270.03L 18042.8 3059.54Z" fill="#FFFFFF"/>
</clipPath>
<g id="Group" clip-path="url(#clip-0)">
</g>
<g id="Vector">
<use xlink:href="#path0_fill" transform="matrix(1 5.55112e-17 -5.55112e-17 1 17961 3017)" fill="#1E1D25"/>
</g>
<g id="Vector">
<use xlink:href="#path1_fill" transform="matrix(1 5.55112e-17 -5.55112e-17 1 18029.1 3223.54)" fill="#1E1D25"/>
</g>
<g id="Vector">
<use xlink:href="#path0_fill" transform="matrix(1 5.55112e-17 -5.55112e-17 1 17961 3017)" fill="#1E1D25"/>
</g>
</g>
</g>
<defs>
<path id="path0_fill" d="M 161.013 379C 72.1782 379 0 307.779 0 220.278C 0 125.655 75.2066 84.4483 83.7872 79.8698C 87.3204 77.8349 90.3489 76.3087 93.8821 74.7825C 103.472 69.6953 112.053 65.6255 124.167 55.9597C 129.214 51.3812 135.271 44.7678 137.29 24.4188L 139.814 0L 154.956 18.3141C 163.537 28.4886 179.184 47.3114 189.278 53.9248C 196.85 59.0121 204.925 62.5732 213.506 66.643C 221.582 70.204 230.163 74.2738 239.248 79.8698L 233.696 88.5181L 239.248 79.8698C 289.722 111.411 318.997 163.809 318.997 222.313C 319.502 311.848 251.362 379 161.013 379ZM 153.442 47.3114C 149.404 60.0295 142.842 66.643 136.785 71.7302C 123.157 82.4134 113.567 87.5007 102.967 92.5879C 99.939 94.1141 96.4058 95.6403 92.8726 97.6752C 85.8062 101.745 20.1897 137.864 20.1897 220.278C 20.1897 296.587 83.2825 358.651 161.013 358.651C 239.753 358.651 299.312 300.148 299.312 223.33C 299.312 152.617 255.4 114.463 229.153 98.1839L 234.201 89.5356L 228.648 98.1839C 220.572 93.0966 213.001 90.0443 204.925 85.9745C 196.345 81.9047 186.755 77.8349 177.669 71.7302C 170.603 66.1342 162.022 56.9772 153.442 47.3114Z"/>
<path id="path1_fill" d="M 49.4647 94.6228C 29.2751 94.6228 23.2182 91.5705 16.1518 86.9919C 5.04743 79.3611 -1.79321e-14 67.6604 -1.79321e-14 52.3987C 0.504742 24.4188 26.2466 -7.76252e-06 56.5312 -7.76252e-06L 57.0359 -7.76252e-06C 79.7493 -7.76252e-06 97.92 12.7181 112.558 23.4013C 121.643 30.0148 130.224 36.1195 136.28 36.1195C 142.842 36.1195 153.946 27.9799 164.041 21.3664C 176.155 13.2268 187.259 5.08724 196.345 5.08724C 204.925 5.08724 211.992 9.15705 216.534 16.7879C 221.077 24.4188 221.582 32.5584 221.582 36.1195C 221.582 45.7852 218.553 64.608 209.973 77.3262C 201.897 89.0268 195.84 94.6228 184.736 94.1141C 177.669 93.6054 169.593 85.9745 160.508 77.8349C 152.432 70.204 141.833 61.047 136.28 60.5382C 136.28 60.5382 136.28 60.5382 135.776 60.5382C 129.214 60.5382 117.605 67.1517 105.491 73.7651C 87.8252 83.4309 68.1402 94.6228 49.4647 94.6228ZM 57.5406 10.1745C 57.0359 10.1745 57.0359 10.1745 57.5406 10.1745C 32.3035 10.6832 10.5996 30.0148 10.5996 52.9074C 10.0948 64.608 14.1328 73.2564 22.2087 78.8523C 27.2561 81.9047 31.294 84.957 49.9695 84.957C 66.1212 84.957 84.7967 74.2738 101.453 64.608C 115.586 56.4684 128.205 49.3463 137.29 49.855C 146.88 50.3638 157.48 60.0295 168.079 69.6953C 174.136 75.2913 182.717 83.4309 186.25 83.4309C 191.802 83.9396 195.335 81.9047 202.402 71.2215C 209.468 61.047 211.992 44.2591 211.992 36.1195C 211.992 31.0322 210.478 25.945 208.459 21.8752C 205.935 17.2967 201.897 15.2617 196.85 15.2617C 191.297 15.2617 180.193 22.8926 170.098 29.506C 157.48 38.1544 145.871 45.7852 136.785 46.294C 127.195 46.294 118.11 39.6805 107.005 32.0497C 92.8726 21.3665 76.7208 10.1745 57.5406 10.1745Z"/>
</defs>
</svg>
